<svg width="67" height="23" viewBox="0 0 67 23" fill="none" xmlns="http://www.w3.org/2000/svg">
<path d="M10.4728 22.4032C8.44578 22.4032 6.64402 21.9575 5.06747 21.0661C3.50344 20.1748 2.26472 18.9104 1.35133 17.273C0.450442 15.6259 0 13.6785 0 11.4307C0 9.1732 0.462954 7.23061 1.38886 5.6029C2.32728 3.9655 3.60353 2.70597 5.21762 1.82429C6.84421 0.932926 8.68977 0.487244 10.7543 0.487244C12.3809 0.487244 13.751 0.714929 14.8646 1.1703C15.9907 1.62567 16.8978 2.21184 17.586 2.92881C18.2742 3.64578 18.7684 4.41603 19.0687 5.23957C19.3815 6.05343 19.5379 6.83337 19.5379 7.57941C19.5379 7.60847 19.5379 7.63754 19.5379 7.6666C19.5379 7.69567 19.5379 7.72474 19.5379 7.7538H18.1303C18.1303 7.72474 18.1303 7.69567 18.1303 7.6666C18.1303 7.63754 18.1303 7.60847 18.1303 7.57941C18.1303 6.90119 17.9926 6.21329 17.7174 5.5157C17.4546 4.80842 17.0292 4.15444 16.4411 3.55373C15.8656 2.94334 15.1086 2.45406 14.1701 2.08589C13.2317 1.71771 12.0931 1.53363 10.7543 1.53363C8.96504 1.53363 7.36973 1.93087 5.96835 2.72534C4.57949 3.51982 3.47841 4.65825 2.66511 6.14063C1.86433 7.623 1.46394 9.38636 1.46394 11.4307C1.46394 12.9712 1.6829 14.3567 2.12083 15.5872C2.57127 16.8079 3.19689 17.8543 3.99767 18.7263C4.81097 19.5886 5.7619 20.2474 6.85047 20.7028C7.95155 21.1582 9.16524 21.3859 10.4915 21.3859C12.1432 21.3859 13.5007 21.1872 14.5643 20.79C15.6278 20.3831 16.4411 19.8986 17.0042 19.3367C17.5797 18.7651 17.9551 18.2273 18.1303 17.7235V13.4072H10.4915V12.4335H19.4816L18.8935 22.1416L18.2241 19.4384C18.124 19.671 17.8925 19.9568 17.5297 20.2959C17.1668 20.6253 16.6663 20.9547 16.0282 21.2841C15.3901 21.6039 14.6081 21.8703 13.6822 22.0835C12.7688 22.2966 11.699 22.4032 10.4728 22.4032Z" fill="#264158"/>
<path d="M35.2368 22.4032C33.6978 22.4032 32.2839 22.1561 30.9951 21.662C29.7064 21.1582 28.5865 20.4315 27.6356 19.482C26.6972 18.5228 25.9652 17.365 25.4397 16.0086C24.9267 14.6522 24.6702 13.1165 24.6702 11.4016C24.6702 9.68671 24.9329 8.15589 25.4585 6.80915C25.984 5.45273 26.7222 4.30945 27.6731 3.37934C28.6241 2.43953 29.7377 1.72256 31.0139 1.22843C32.3027 0.734307 33.7103 0.487244 35.2368 0.487244C36.7633 0.487244 38.1709 0.734307 39.4597 1.22843C40.7485 1.72256 41.8683 2.43953 42.8192 3.37934C43.7702 4.30945 44.5021 5.45273 45.0151 6.80915C45.5407 8.15589 45.8034 9.68671 45.8034 11.4016C45.8034 13.1165 45.5407 14.6522 45.0151 16.0086C44.5021 17.365 43.7702 18.5228 42.8192 19.482C41.8808 20.4315 40.7672 21.1582 39.4785 21.662C38.1897 22.1561 36.7758 22.4032 35.2368 22.4032ZM35.2368 21.3859C37.0135 21.3859 38.5838 20.9886 39.9477 20.1942C41.324 19.39 42.3938 18.2419 43.1571 16.7498C43.9328 15.248 44.3207 13.4653 44.3207 11.4016C44.3207 9.32822 43.9266 7.55518 43.1383 6.0825C42.3625 4.60012 41.2927 3.47138 39.9289 2.69628C38.5651 1.91149 37.001 1.5191 35.2368 1.5191C33.4851 1.5191 31.921 1.91149 30.5447 2.69628C29.1809 3.47138 28.1048 4.60012 27.3165 6.0825C26.5408 7.55518 26.1529 9.32822 26.1529 11.4016C26.1529 13.475 26.5408 15.2577 27.3165 16.7498C28.1048 18.2419 29.1809 19.39 30.5447 20.1942C31.921 20.9886 33.4851 21.3859 35.2368 21.3859Z" fill="#264158"/>
<path d="M50.9404 22.1416V0.705242H59.48C61.7823 0.705242 63.559 1.14123 64.8102 2.01322C66.0615 2.87552 66.6871 4.26101 66.6871 6.16969C66.6871 7.33234 66.3993 8.32059 65.8237 9.13445C65.2607 9.9483 64.5913 10.5781 63.8155 11.0238C63.0397 11.4597 62.3453 11.7117 61.7322 11.7795C62.3453 11.8182 62.9709 11.9587 63.6091 12.2009C64.2597 12.4335 64.804 12.7968 65.2419 13.2909C65.6798 13.7754 65.8988 14.4293 65.8988 15.2529C65.8988 16.1249 65.8988 17.0308 65.8988 17.9706C65.8988 18.9007 65.8988 19.8018 65.8988 20.6737C65.8988 21.0516 65.9426 21.3762 66.0302 21.6475C66.1178 21.9091 66.1928 22.0738 66.2554 22.1416H64.7727C64.7226 22.0641 64.6538 21.8994 64.5662 21.6475C64.4912 21.3859 64.4536 21.0613 64.4536 20.6737C64.4536 19.8308 64.4536 18.954 64.4536 18.0433C64.4536 17.1325 64.4536 16.2557 64.4536 15.4128C64.4536 14.3276 63.9969 13.538 63.0835 13.0439C62.1701 12.5497 60.9502 12.3027 59.4237 12.3027H51.8788L52.348 11.8521V22.1416H50.9404ZM52.348 11.794L51.8788 11.3144H59.4237C60.4622 11.3144 61.4194 11.1061 62.2953 10.6895C63.1711 10.2729 63.8718 9.68671 64.3973 8.93099C64.9354 8.17526 65.2044 7.27421 65.2044 6.22783C65.2044 4.61949 64.6851 3.46653 63.6466 2.76894C62.6206 2.06167 61.1191 1.70803 59.1422 1.70803H51.86L52.348 1.2139V11.794Z" fill="#264158"/>
</svg>
