<svg width="80" height="93" viewBox="0 0 80 93" fill="none" xmlns="http://www.w3.org/2000/svg">
<path fill-rule="evenodd" clip-rule="evenodd" d="M43.326 0.134369C43.326 0.235809 43.9431 1.04607 44.6976 1.93461C49.8338 7.98372 51.3165 12.2138 50.7721 19.2657C50.0507 28.6094 51.1794 34.2024 54.3932 37.2089C57.1221 39.7615 58.3322 41.5768 58.5338 43.4205L58.6931 44.877L57.835 42.842C54.6778 35.3564 43.4894 30.4065 23.9016 27.8295C14.8653 26.6408 -1.42667 25.4789 0.433368 26.1558C3.86133 27.4031 12.6919 32.5286 21.5666 38.4221C24.8383 40.5946 27.6561 42.429 27.8283 42.4985C28.0005 42.568 29.0271 43.2411 30.1094 43.9944C38.6066 49.9089 44.9794 52.4446 46.6992 50.5952C48.8234 48.3116 46.2546 44.5592 39.4431 39.9957C35.7994 37.5546 35.822 37.3232 39.5176 39.2318C57.7636 48.6556 47.1306 68.4467 16.9608 81.2168C13.9996 82.4704 14.5538 82.5239 18.3334 81.3498C25.7046 79.0596 32.4306 75.8865 38.3101 71.925C42.9102 68.8252 42.7314 68.6602 41.4929 74.863C40.1698 81.4882 38.5865 94.0057 39.2067 92.9355C39.3564 92.6773 39.7205 91.1979 40.0161 89.6482C41.31 82.863 44.2509 72.2923 45.5909 69.6107C46.7352 67.3208 46.8955 67.2335 49.5608 67.4457C55.783 67.9414 62.7482 64.4292 64.4667 59.9289C65.1925 58.0291 64.8747 57.7636 64.0109 59.5479C61.6286 64.4689 55.1878 67.3258 49.397 66.03C47.4803 65.601 47.5389 65.4915 48.2242 64.1577C53.8982 53.1155 65.7319 46.7214 71.1082 51.7934C73.0562 53.6309 75.2303 54.1706 73.9044 52.4321C73.4548 51.8425 72.993 50.7471 72.8778 49.9972C72.4053 46.9146 70.7817 45.4785 66.7723 44.5968L65.9548 44.4171L66.1013 41.3063C66.6596 29.461 62.8302 17.9386 55.686 9.96805C51.9928 5.84754 43.326 -1.04784 43.326 0.134369ZM39.8821 13.2507C33.1238 14.5992 27.3812 17.7185 22.3493 22.7738L19.6881 25.4473L20.7526 25.5581C21.7006 25.6567 22.0425 25.4488 23.8834 23.6521C30.0553 17.628 38.1119 14.3512 46.7518 14.3512C49.2433 14.3512 49.4575 14.2529 49.0846 13.2811C48.8426 12.6506 42.986 12.6315 39.8821 13.2507ZM63.3453 18.3853C63.6865 19.0544 64.5697 20.0431 65.3083 20.5823C74.5211 27.3086 80.2478 41.0311 78.1057 51.2477C74.6623 67.6709 62.2504 78.5336 46.9284 78.5336C44.393 78.5336 44.3351 78.5509 44.1838 79.3411C43.7202 81.7675 55.1287 80.0208 61.798 76.6445C84.4569 65.1731 86.3852 32.1116 65.194 18.4151C62.7967 16.8653 62.5679 16.8619 63.3453 18.3853ZM14.1099 36.1889C12.6546 38.6986 12.1283 49.9953 13.2821 53.9565C15.5419 61.7157 18.0425 66.0735 22.9501 70.8045C26.3358 74.0684 26.6805 74.2719 27.6198 73.5634L28.3302 73.0274L26.9041 72.0033C16.8534 64.7855 11.4104 48.3307 15.5084 37.5527C15.8775 36.5812 14.603 35.3383 14.1099 36.1889ZM33.4986 76.8561C32.3752 77.4657 32.5916 77.6307 35.9065 78.6914C38.9369 79.6611 38.9428 79.6608 38.9425 78.6119C38.9419 77.8333 38.7687 77.6999 37.1294 77.2184C36.1326 76.9253 35.1113 76.6138 34.8599 76.5255C34.6088 76.4375 33.9961 76.5863 33.4986 76.8561Z" fill="#264158"/>
<path d="M65.7388 50.541C61.8252 50.8541 60.3794 55.165 63.8306 56.304C65.4091 56.8246 67.803 56.0479 69.7228 54.3917L71.2294 53.0921L70.3903 52.2164C68.9769 50.8014 66.7004 50.5099 65.7388 50.541Z" fill="#264158"/>
</svg>
