<svg width="128" height="23" viewBox="0 0 128 23" fill="none" xmlns="http://www.w3.org/2000/svg">
<path d="M8.79497 22.4032C6.9415 22.4032 5.3886 22.1755 4.13626 21.7201C2.88392 21.2648 1.93841 20.5769 1.29971 19.6564C0.661021 18.7263 0.341675 17.5685 0.341675 16.183C0.341675 15.9602 0.341675 15.7809 0.341675 15.6453C0.341675 15.5 0.341675 15.3159 0.341675 15.093H1.80691C1.80691 15.3159 1.80691 15.4951 1.80691 15.6308C1.80691 15.7664 1.80691 15.9456 1.80691 16.1685C1.80691 17.9706 2.40177 19.2931 3.5915 20.136C4.78122 20.9693 6.49066 21.3859 8.71983 21.3859C11.0617 21.3859 12.815 21.0177 13.9797 20.2814C15.1569 19.5353 15.7455 18.455 15.7455 17.0405C15.7455 16.0522 15.4512 15.2432 14.8626 14.6134C14.2865 13.974 13.4725 13.4363 12.4205 13.0003C11.381 12.5643 10.1475 12.1622 8.71983 11.794C7.09178 11.3774 5.66412 10.9026 4.43682 10.3698C3.20953 9.82719 2.25775 9.1732 1.58149 8.40779C0.905228 7.63269 0.567096 6.66866 0.567096 5.5157C0.567096 4.42087 0.886442 3.50044 1.52514 2.75441C2.17635 2.00838 3.09682 1.44643 4.28654 1.06857C5.48879 0.681019 6.91646 0.487244 8.56955 0.487244C10.3353 0.487244 11.8444 0.700396 13.0968 1.1267C14.3491 1.54332 15.3071 2.18762 15.9709 3.05961C16.6471 3.9219 16.9853 5.02158 16.9853 6.35862C16.9853 6.61053 16.9853 6.81884 16.9853 6.98355C16.9853 7.13857 16.9853 7.34203 16.9853 7.59394H15.52C15.52 7.35172 15.52 7.1531 15.52 6.99808C15.52 6.83337 15.52 6.62991 15.52 6.38769C15.52 4.66309 14.9126 3.41809 13.6979 2.65268C12.4956 1.88727 10.7987 1.50456 8.60711 1.50456C6.51571 1.50456 4.89393 1.83882 3.74178 2.50735C2.58962 3.17587 2.01355 4.17866 2.01355 5.5157C2.01355 6.51364 2.33289 7.34203 2.97159 8.00087C3.6228 8.65001 4.51197 9.19743 5.63907 9.64311C6.76618 10.0791 8.04982 10.486 9.49001 10.8639C11.1181 11.2805 12.5019 11.7456 13.6415 12.2591C14.7937 12.7726 15.6703 13.4023 16.2714 14.1484C16.8851 14.8944 17.1919 15.8439 17.1919 16.9969C17.1919 18.1304 16.8663 19.0993 16.2151 19.9035C15.5764 20.7077 14.6309 21.3277 13.3785 21.7637C12.1387 22.19 10.6109 22.4032 8.79497 22.4032Z" fill="#264158"/>
<path d="M39.1928 0.705242V22.1416H37.7463V11.4307L38.4038 11.9684H23.1315L23.789 11.4307V22.1416H22.3425V0.705242H23.789V11.5324L23.1315 10.9656H38.4038L37.7463 11.5324V0.705242H39.1928Z" fill="#264158"/>
<path d="M46.1359 1.70803L46.7934 1.09764V11.3144L46.3425 10.893H58.0081V11.8812H46.3425L46.7934 11.4597V21.7492L46.1359 21.1388H59.3418V22.1416H45.3469V0.705242H59.3418V1.70803H46.1359Z" fill="#264158"/>
<path d="M66.8984 22.1416H65.4895V0.705242H67.8377L81.9829 21.4731L81.8326 21.5457V0.705242H83.2415V22.1416H80.837L66.7481 1.3883L66.8984 1.3447V22.1416Z" fill="#264158"/>
<path d="M94.0323 10.9802V10.0936L105.116 22.1416H103.444L93.1119 11.0092L93.882 11.0819L90.6322 14.2792L90.8576 13.4944V22.1416H89.4112V0.705242H90.8576V12.9276L90.5571 12.7387L102.636 0.705242H104.27L94.0323 10.9802Z" fill="#264158"/>
<path d="M116.804 22.4032C115.264 22.4032 113.848 22.1561 112.559 21.662C111.269 21.1582 110.148 20.4315 109.196 19.482C108.257 18.5228 107.524 17.365 106.998 16.0086C106.485 14.6522 106.228 13.1165 106.228 11.4016C106.228 9.68671 106.491 8.15589 107.017 6.80915C107.543 5.45273 108.282 4.30945 109.234 3.37934C110.185 2.43953 111.3 1.72256 112.577 1.22843C113.867 0.734307 115.276 0.487244 116.804 0.487244C118.332 0.487244 119.741 0.734307 121.031 1.22843C122.321 1.72256 123.441 2.43953 124.393 3.37934C125.345 4.30945 126.078 5.45273 126.591 6.80915C127.117 8.15589 127.38 9.68671 127.38 11.4016C127.38 13.1165 127.117 14.6522 126.591 16.0086C126.078 17.365 125.345 18.5228 124.393 19.482C123.454 20.4315 122.339 21.1582 121.049 21.662C119.759 22.1561 118.344 22.4032 116.804 22.4032ZM116.804 21.3859C118.582 21.3859 120.154 20.9886 121.519 20.1942C122.897 19.39 123.967 18.2419 124.731 16.7498C125.508 15.248 125.896 13.4653 125.896 11.4016C125.896 9.32822 125.501 7.55518 124.712 6.0825C123.936 4.60012 122.865 3.47138 121.5 2.69628C120.135 1.91149 118.57 1.5191 116.804 1.5191C115.051 1.5191 113.485 1.91149 112.108 2.69628C110.743 3.47138 109.666 4.60012 108.877 6.0825C108.1 7.55518 107.712 9.32822 107.712 11.4016C107.712 13.475 108.1 15.2577 108.877 16.7498C109.666 18.2419 110.743 19.39 112.108 20.1942C113.485 20.9886 115.051 21.3859 116.804 21.3859Z" fill="#264158"/>
</svg>
