<svg width="16" height="20" viewBox="0 0 16 20" fill="none" xmlns="http://www.w3.org/2000/svg">
<path d="M11.7333 11.4259C10.6667 12.6954 10.6667 13.9649 9.6 13.9649C8.53333 13.9649 7.46667 12.6954 6.4 11.4259C5.33333 10.1563 4.26667 8.88678 4.26667 7.61724C4.26667 6.3477 5.33333 6.3477 6.4 5.07816C7.46667 3.80862 4.26667 0 3.2 0C2.13333 0 0 3.80862 0 3.80862C0 6.3477 2.192 11.4957 4.26667 13.9649C6.34133 16.4342 10.6667 19.0431 12.8 19.0431C12.8 19.0431 16 16.504 16 15.2345C16 13.9649 12.8 10.1563 11.7333 11.4259Z" fill="white"/>
</svg>
